<mxfile host="app.diagrams.net" modified="2023-11-27T14:55:48.422Z" agent="Mozilla/5.0 (Windows NT 10.0; Win64; x64) AppleWebKit/537.36 (KHTML, like Gecko) Chrome/119.0.0.0 Safari/537.36" etag="jsVd7aSEyyrx0HXPykSA" version="22.1.4" type="github">
  <diagram id="C5RBs43oDa-KdzZeNtuy" name="Page-1">
    <mxGraphModel dx="881" dy="811" grid="1" gridSize="10" guides="1" tooltips="1" connect="1" arrows="1" fold="1" page="1" pageScale="1" pageWidth="827" pageHeight="1169" math="0" shadow="0">
      <root>
        <mxCell id="WIyWlLk6GJQsqaUBKTNV-0" />
        <mxCell id="WIyWlLk6GJQsqaUBKTNV-1" parent="WIyWlLk6GJQsqaUBKTNV-0" />
        <mxCell id="WIyWlLk6GJQsqaUBKTNV-3" value="블루투스 연결" style="rounded=1;whiteSpace=wrap;html=1;fontSize=12;glass=0;strokeWidth=1;shadow=0;" parent="WIyWlLk6GJQsqaUBKTNV-1" vertex="1">
          <mxGeometry x="310" y="100" width="120" height="40" as="geometry" />
        </mxCell>
        <mxCell id="WIyWlLk6GJQsqaUBKTNV-4" value="Yes" style="rounded=0;html=1;jettySize=auto;orthogonalLoop=1;fontSize=11;endArrow=block;endFill=0;endSize=8;strokeWidth=1;shadow=0;labelBackgroundColor=none;edgeStyle=orthogonalEdgeStyle;" parent="WIyWlLk6GJQsqaUBKTNV-1" source="WIyWlLk6GJQsqaUBKTNV-6" target="WIyWlLk6GJQsqaUBKTNV-10" edge="1">
          <mxGeometry y="20" relative="1" as="geometry">
            <mxPoint as="offset" />
          </mxGeometry>
        </mxCell>
        <mxCell id="WIyWlLk6GJQsqaUBKTNV-5" value="No" style="edgeStyle=orthogonalEdgeStyle;rounded=0;html=1;jettySize=auto;orthogonalLoop=1;fontSize=11;endArrow=block;endFill=0;endSize=8;strokeWidth=1;shadow=0;labelBackgroundColor=none;" parent="WIyWlLk6GJQsqaUBKTNV-1" source="WIyWlLk6GJQsqaUBKTNV-6" target="WIyWlLk6GJQsqaUBKTNV-7" edge="1">
          <mxGeometry y="10" relative="1" as="geometry">
            <mxPoint as="offset" />
          </mxGeometry>
        </mxCell>
        <mxCell id="WIyWlLk6GJQsqaUBKTNV-6" value="Lamp&lt;br&gt;plugged in?" style="rhombus;whiteSpace=wrap;html=1;shadow=0;fontFamily=Helvetica;fontSize=12;align=center;strokeWidth=1;spacing=6;spacingTop=-4;" parent="WIyWlLk6GJQsqaUBKTNV-1" vertex="1">
          <mxGeometry x="320" y="280" width="100" height="80" as="geometry" />
        </mxCell>
        <mxCell id="WIyWlLk6GJQsqaUBKTNV-7" value="Plug in lamp" style="rounded=1;whiteSpace=wrap;html=1;fontSize=12;glass=0;strokeWidth=1;shadow=0;" parent="WIyWlLk6GJQsqaUBKTNV-1" vertex="1">
          <mxGeometry x="470" y="300" width="120" height="40" as="geometry" />
        </mxCell>
        <mxCell id="WIyWlLk6GJQsqaUBKTNV-8" value="No" style="rounded=0;html=1;jettySize=auto;orthogonalLoop=1;fontSize=11;endArrow=block;endFill=0;endSize=8;strokeWidth=1;shadow=0;labelBackgroundColor=none;edgeStyle=orthogonalEdgeStyle;" parent="WIyWlLk6GJQsqaUBKTNV-1" source="WIyWlLk6GJQsqaUBKTNV-10" target="WIyWlLk6GJQsqaUBKTNV-11" edge="1">
          <mxGeometry x="0.3333" y="20" relative="1" as="geometry">
            <mxPoint as="offset" />
          </mxGeometry>
        </mxCell>
        <mxCell id="WIyWlLk6GJQsqaUBKTNV-9" value="Yes" style="edgeStyle=orthogonalEdgeStyle;rounded=0;html=1;jettySize=auto;orthogonalLoop=1;fontSize=11;endArrow=block;endFill=0;endSize=8;strokeWidth=1;shadow=0;labelBackgroundColor=none;" parent="WIyWlLk6GJQsqaUBKTNV-1" source="WIyWlLk6GJQsqaUBKTNV-10" target="WIyWlLk6GJQsqaUBKTNV-12" edge="1">
          <mxGeometry y="10" relative="1" as="geometry">
            <mxPoint as="offset" />
          </mxGeometry>
        </mxCell>
        <mxCell id="WIyWlLk6GJQsqaUBKTNV-10" value="Bulb&lt;br&gt;burned out?" style="rhombus;whiteSpace=wrap;html=1;shadow=0;fontFamily=Helvetica;fontSize=12;align=center;strokeWidth=1;spacing=6;spacingTop=-4;" parent="WIyWlLk6GJQsqaUBKTNV-1" vertex="1">
          <mxGeometry x="320" y="400" width="100" height="80" as="geometry" />
        </mxCell>
        <mxCell id="WIyWlLk6GJQsqaUBKTNV-11" value="Repair Lamp" style="rounded=1;whiteSpace=wrap;html=1;fontSize=12;glass=0;strokeWidth=1;shadow=0;" parent="WIyWlLk6GJQsqaUBKTNV-1" vertex="1">
          <mxGeometry x="310" y="540" width="120" height="40" as="geometry" />
        </mxCell>
        <mxCell id="WIyWlLk6GJQsqaUBKTNV-12" value="Replace Bulb" style="rounded=1;whiteSpace=wrap;html=1;fontSize=12;glass=0;strokeWidth=1;shadow=0;" parent="WIyWlLk6GJQsqaUBKTNV-1" vertex="1">
          <mxGeometry x="470" y="420" width="120" height="40" as="geometry" />
        </mxCell>
        <mxCell id="3EG9-TvV20ggC_MvHCEM-3" value="커피 머신" style="rounded=1;whiteSpace=wrap;html=1;fontSize=12;glass=0;strokeWidth=1;shadow=0;" parent="WIyWlLk6GJQsqaUBKTNV-1" vertex="1">
          <mxGeometry x="310" y="10" width="120" height="40" as="geometry" />
        </mxCell>
        <mxCell id="3EG9-TvV20ggC_MvHCEM-5" value="" style="rounded=0;html=1;jettySize=auto;orthogonalLoop=1;fontSize=11;endArrow=block;endFill=0;endSize=8;strokeWidth=1;shadow=0;labelBackgroundColor=none;edgeStyle=orthogonalEdgeStyle;" parent="WIyWlLk6GJQsqaUBKTNV-1" edge="1">
          <mxGeometry relative="1" as="geometry">
            <mxPoint x="369.83" y="140" as="sourcePoint" />
            <mxPoint x="369.83" y="190" as="targetPoint" />
          </mxGeometry>
        </mxCell>
        <mxCell id="3EG9-TvV20ggC_MvHCEM-7" value="어플 계정 연동" style="rounded=1;whiteSpace=wrap;html=1;fontSize=12;glass=0;strokeWidth=1;shadow=0;" parent="WIyWlLk6GJQsqaUBKTNV-1" vertex="1">
          <mxGeometry x="310" y="190" width="120" height="40" as="geometry" />
        </mxCell>
        <mxCell id="3EG9-TvV20ggC_MvHCEM-8" value="" style="rounded=0;html=1;jettySize=auto;orthogonalLoop=1;fontSize=11;endArrow=block;endFill=0;endSize=8;strokeWidth=1;shadow=0;labelBackgroundColor=none;edgeStyle=orthogonalEdgeStyle;" parent="WIyWlLk6GJQsqaUBKTNV-1" edge="1">
          <mxGeometry relative="1" as="geometry">
            <mxPoint x="369.8" y="50" as="sourcePoint" />
            <mxPoint x="369.8" y="100" as="targetPoint" />
          </mxGeometry>
        </mxCell>
        <mxCell id="3EG9-TvV20ggC_MvHCEM-9" value="" style="rounded=0;html=1;jettySize=auto;orthogonalLoop=1;fontSize=11;endArrow=block;endFill=0;endSize=8;strokeWidth=1;shadow=0;labelBackgroundColor=none;edgeStyle=orthogonalEdgeStyle;" parent="WIyWlLk6GJQsqaUBKTNV-1" edge="1">
          <mxGeometry relative="1" as="geometry">
            <mxPoint x="369.79999999999995" y="230" as="sourcePoint" />
            <mxPoint x="369.79999999999995" y="280" as="targetPoint" />
          </mxGeometry>
        </mxCell>
        <mxCell id="DR7JTV7pjPa2kn4OJmJ5-0" value="목포대학교 주차장 관리 시스템" style="rounded=1;whiteSpace=wrap;html=1;absoluteArcSize=1;arcSize=14;strokeWidth=2;" vertex="1" parent="WIyWlLk6GJQsqaUBKTNV-1">
          <mxGeometry x="190" y="630" width="190" height="40" as="geometry" />
        </mxCell>
        <mxCell id="DR7JTV7pjPa2kn4OJmJ5-1" value="주차 관제 시스템" style="rounded=1;whiteSpace=wrap;html=1;absoluteArcSize=1;arcSize=14;strokeWidth=2;" vertex="1" parent="WIyWlLk6GJQsqaUBKTNV-1">
          <mxGeometry x="250" y="690" width="130" height="40" as="geometry" />
        </mxCell>
        <mxCell id="DR7JTV7pjPa2kn4OJmJ5-2" value="" style="endArrow=none;html=1;rounded=0;entryX=0.137;entryY=1.075;entryDx=0;entryDy=0;entryPerimeter=0;" edge="1" parent="WIyWlLk6GJQsqaUBKTNV-1">
          <mxGeometry width="50" height="50" relative="1" as="geometry">
            <mxPoint x="210" y="1250" as="sourcePoint" />
            <mxPoint x="210.02999999999997" y="670.0000000000002" as="targetPoint" />
          </mxGeometry>
        </mxCell>
        <mxCell id="DR7JTV7pjPa2kn4OJmJ5-3" value="" style="endArrow=none;html=1;rounded=0;" edge="1" parent="WIyWlLk6GJQsqaUBKTNV-1">
          <mxGeometry width="50" height="50" relative="1" as="geometry">
            <mxPoint x="270" y="757" as="sourcePoint" />
            <mxPoint x="290" y="756.83" as="targetPoint" />
          </mxGeometry>
        </mxCell>
        <mxCell id="DR7JTV7pjPa2kn4OJmJ5-5" value="" style="endArrow=none;html=1;rounded=0;entryX=0.158;entryY=1.027;entryDx=0;entryDy=0;entryPerimeter=0;" edge="1" parent="WIyWlLk6GJQsqaUBKTNV-1" target="DR7JTV7pjPa2kn4OJmJ5-1">
          <mxGeometry width="50" height="50" relative="1" as="geometry">
            <mxPoint x="271" y="840" as="sourcePoint" />
            <mxPoint x="320" y="800" as="targetPoint" />
          </mxGeometry>
        </mxCell>
        <mxCell id="DR7JTV7pjPa2kn4OJmJ5-6" value="차량정보" style="rounded=1;whiteSpace=wrap;html=1;absoluteArcSize=1;arcSize=14;strokeWidth=2;" vertex="1" parent="WIyWlLk6GJQsqaUBKTNV-1">
          <mxGeometry x="290" y="742" width="120" height="30" as="geometry" />
        </mxCell>
        <mxCell id="DR7JTV7pjPa2kn4OJmJ5-7" value="입출차기록" style="rounded=1;whiteSpace=wrap;html=1;absoluteArcSize=1;arcSize=14;strokeWidth=2;" vertex="1" parent="WIyWlLk6GJQsqaUBKTNV-1">
          <mxGeometry x="290" y="782" width="120" height="30" as="geometry" />
        </mxCell>
        <mxCell id="DR7JTV7pjPa2kn4OJmJ5-8" value="주차결제" style="rounded=1;whiteSpace=wrap;html=1;absoluteArcSize=1;arcSize=14;strokeWidth=2;" vertex="1" parent="WIyWlLk6GJQsqaUBKTNV-1">
          <mxGeometry x="290" y="824" width="120" height="30" as="geometry" />
        </mxCell>
        <mxCell id="DR7JTV7pjPa2kn4OJmJ5-10" value="" style="endArrow=none;html=1;rounded=0;" edge="1" parent="WIyWlLk6GJQsqaUBKTNV-1">
          <mxGeometry width="50" height="50" relative="1" as="geometry">
            <mxPoint x="271" y="797" as="sourcePoint" />
            <mxPoint x="291" y="796.83" as="targetPoint" />
          </mxGeometry>
        </mxCell>
        <mxCell id="DR7JTV7pjPa2kn4OJmJ5-11" value="" style="endArrow=none;html=1;rounded=0;" edge="1" parent="WIyWlLk6GJQsqaUBKTNV-1">
          <mxGeometry width="50" height="50" relative="1" as="geometry">
            <mxPoint x="271" y="840" as="sourcePoint" />
            <mxPoint x="291" y="839.83" as="targetPoint" />
          </mxGeometry>
        </mxCell>
        <mxCell id="DR7JTV7pjPa2kn4OJmJ5-12" value="" style="endArrow=none;html=1;rounded=0;entryX=0;entryY=0.5;entryDx=0;entryDy=0;" edge="1" parent="WIyWlLk6GJQsqaUBKTNV-1" target="DR7JTV7pjPa2kn4OJmJ5-1">
          <mxGeometry width="50" height="50" relative="1" as="geometry">
            <mxPoint x="210" y="710.03" as="sourcePoint" />
            <mxPoint x="230" y="709.86" as="targetPoint" />
          </mxGeometry>
        </mxCell>
        <mxCell id="DR7JTV7pjPa2kn4OJmJ5-13" value="주차 유도 시스템" style="rounded=1;whiteSpace=wrap;html=1;absoluteArcSize=1;arcSize=14;strokeWidth=2;" vertex="1" parent="WIyWlLk6GJQsqaUBKTNV-1">
          <mxGeometry x="250" y="870" width="130" height="40" as="geometry" />
        </mxCell>
        <mxCell id="DR7JTV7pjPa2kn4OJmJ5-14" value="" style="endArrow=none;html=1;rounded=0;" edge="1" parent="WIyWlLk6GJQsqaUBKTNV-1">
          <mxGeometry width="50" height="50" relative="1" as="geometry">
            <mxPoint x="270" y="937" as="sourcePoint" />
            <mxPoint x="290" y="936.83" as="targetPoint" />
          </mxGeometry>
        </mxCell>
        <mxCell id="DR7JTV7pjPa2kn4OJmJ5-15" value="" style="endArrow=none;html=1;rounded=0;entryX=0.158;entryY=1.027;entryDx=0;entryDy=0;entryPerimeter=0;" edge="1" parent="WIyWlLk6GJQsqaUBKTNV-1" target="DR7JTV7pjPa2kn4OJmJ5-13">
          <mxGeometry width="50" height="50" relative="1" as="geometry">
            <mxPoint x="271" y="1020" as="sourcePoint" />
            <mxPoint x="320" y="980" as="targetPoint" />
          </mxGeometry>
        </mxCell>
        <mxCell id="DR7JTV7pjPa2kn4OJmJ5-16" value="주차장 현황" style="rounded=1;whiteSpace=wrap;html=1;absoluteArcSize=1;arcSize=14;strokeWidth=2;" vertex="1" parent="WIyWlLk6GJQsqaUBKTNV-1">
          <mxGeometry x="290" y="922" width="120" height="30" as="geometry" />
        </mxCell>
        <mxCell id="DR7JTV7pjPa2kn4OJmJ5-17" value="주차장 지도" style="rounded=1;whiteSpace=wrap;html=1;absoluteArcSize=1;arcSize=14;strokeWidth=2;" vertex="1" parent="WIyWlLk6GJQsqaUBKTNV-1">
          <mxGeometry x="290" y="962" width="120" height="30" as="geometry" />
        </mxCell>
        <mxCell id="DR7JTV7pjPa2kn4OJmJ5-18" value="주차 장소 추천" style="rounded=1;whiteSpace=wrap;html=1;absoluteArcSize=1;arcSize=14;strokeWidth=2;" vertex="1" parent="WIyWlLk6GJQsqaUBKTNV-1">
          <mxGeometry x="290" y="1004" width="120" height="30" as="geometry" />
        </mxCell>
        <mxCell id="DR7JTV7pjPa2kn4OJmJ5-19" value="" style="endArrow=none;html=1;rounded=0;" edge="1" parent="WIyWlLk6GJQsqaUBKTNV-1">
          <mxGeometry width="50" height="50" relative="1" as="geometry">
            <mxPoint x="271" y="977" as="sourcePoint" />
            <mxPoint x="291" y="976.83" as="targetPoint" />
          </mxGeometry>
        </mxCell>
        <mxCell id="DR7JTV7pjPa2kn4OJmJ5-20" value="" style="endArrow=none;html=1;rounded=0;" edge="1" parent="WIyWlLk6GJQsqaUBKTNV-1">
          <mxGeometry width="50" height="50" relative="1" as="geometry">
            <mxPoint x="271" y="1020" as="sourcePoint" />
            <mxPoint x="291" y="1019.83" as="targetPoint" />
          </mxGeometry>
        </mxCell>
        <mxCell id="DR7JTV7pjPa2kn4OJmJ5-21" value="" style="endArrow=none;html=1;rounded=0;entryX=0;entryY=0.5;entryDx=0;entryDy=0;" edge="1" parent="WIyWlLk6GJQsqaUBKTNV-1" target="DR7JTV7pjPa2kn4OJmJ5-13">
          <mxGeometry width="50" height="50" relative="1" as="geometry">
            <mxPoint x="210" y="890.03" as="sourcePoint" />
            <mxPoint x="230" y="889.86" as="targetPoint" />
          </mxGeometry>
        </mxCell>
        <mxCell id="DR7JTV7pjPa2kn4OJmJ5-22" value="차량 사고 관제 시스템" style="rounded=1;whiteSpace=wrap;html=1;absoluteArcSize=1;arcSize=14;strokeWidth=2;" vertex="1" parent="WIyWlLk6GJQsqaUBKTNV-1">
          <mxGeometry x="250" y="1050" width="130" height="40" as="geometry" />
        </mxCell>
        <mxCell id="DR7JTV7pjPa2kn4OJmJ5-23" value="" style="endArrow=none;html=1;rounded=0;" edge="1" parent="WIyWlLk6GJQsqaUBKTNV-1">
          <mxGeometry width="50" height="50" relative="1" as="geometry">
            <mxPoint x="270" y="1117" as="sourcePoint" />
            <mxPoint x="290" y="1116.83" as="targetPoint" />
          </mxGeometry>
        </mxCell>
        <mxCell id="DR7JTV7pjPa2kn4OJmJ5-24" value="" style="endArrow=none;html=1;rounded=0;entryX=0.158;entryY=1.027;entryDx=0;entryDy=0;entryPerimeter=0;" edge="1" parent="WIyWlLk6GJQsqaUBKTNV-1" target="DR7JTV7pjPa2kn4OJmJ5-22">
          <mxGeometry width="50" height="50" relative="1" as="geometry">
            <mxPoint x="271" y="1200" as="sourcePoint" />
            <mxPoint x="320" y="1160" as="targetPoint" />
          </mxGeometry>
        </mxCell>
        <mxCell id="DR7JTV7pjPa2kn4OJmJ5-25" value="사고 정보" style="rounded=1;whiteSpace=wrap;html=1;absoluteArcSize=1;arcSize=14;strokeWidth=2;" vertex="1" parent="WIyWlLk6GJQsqaUBKTNV-1">
          <mxGeometry x="290" y="1102" width="120" height="30" as="geometry" />
        </mxCell>
        <mxCell id="DR7JTV7pjPa2kn4OJmJ5-26" value="사고 민원 처리" style="rounded=1;whiteSpace=wrap;html=1;absoluteArcSize=1;arcSize=14;strokeWidth=2;" vertex="1" parent="WIyWlLk6GJQsqaUBKTNV-1">
          <mxGeometry x="290" y="1142" width="120" height="30" as="geometry" />
        </mxCell>
        <mxCell id="DR7JTV7pjPa2kn4OJmJ5-27" value="도난 및 손괴 감지 정보" style="rounded=1;whiteSpace=wrap;html=1;absoluteArcSize=1;arcSize=14;strokeWidth=2;" vertex="1" parent="WIyWlLk6GJQsqaUBKTNV-1">
          <mxGeometry x="290" y="1184" width="130" height="30" as="geometry" />
        </mxCell>
        <mxCell id="DR7JTV7pjPa2kn4OJmJ5-28" value="" style="endArrow=none;html=1;rounded=0;" edge="1" parent="WIyWlLk6GJQsqaUBKTNV-1">
          <mxGeometry width="50" height="50" relative="1" as="geometry">
            <mxPoint x="271" y="1157" as="sourcePoint" />
            <mxPoint x="291" y="1156.83" as="targetPoint" />
          </mxGeometry>
        </mxCell>
        <mxCell id="DR7JTV7pjPa2kn4OJmJ5-29" value="" style="endArrow=none;html=1;rounded=0;" edge="1" parent="WIyWlLk6GJQsqaUBKTNV-1">
          <mxGeometry width="50" height="50" relative="1" as="geometry">
            <mxPoint x="271" y="1200" as="sourcePoint" />
            <mxPoint x="291" y="1199.83" as="targetPoint" />
          </mxGeometry>
        </mxCell>
        <mxCell id="DR7JTV7pjPa2kn4OJmJ5-30" value="" style="endArrow=none;html=1;rounded=0;entryX=0;entryY=0.5;entryDx=0;entryDy=0;" edge="1" parent="WIyWlLk6GJQsqaUBKTNV-1" target="DR7JTV7pjPa2kn4OJmJ5-22">
          <mxGeometry width="50" height="50" relative="1" as="geometry">
            <mxPoint x="210" y="1070.03" as="sourcePoint" />
            <mxPoint x="230" y="1069.8600000000001" as="targetPoint" />
          </mxGeometry>
        </mxCell>
        <mxCell id="DR7JTV7pjPa2kn4OJmJ5-31" value="불법 주정차 차단 시스템" style="rounded=1;whiteSpace=wrap;html=1;absoluteArcSize=1;arcSize=14;strokeWidth=2;" vertex="1" parent="WIyWlLk6GJQsqaUBKTNV-1">
          <mxGeometry x="250" y="1230" width="140" height="40" as="geometry" />
        </mxCell>
        <mxCell id="DR7JTV7pjPa2kn4OJmJ5-32" value="" style="endArrow=none;html=1;rounded=0;" edge="1" parent="WIyWlLk6GJQsqaUBKTNV-1">
          <mxGeometry width="50" height="50" relative="1" as="geometry">
            <mxPoint x="270" y="1297" as="sourcePoint" />
            <mxPoint x="290" y="1296.83" as="targetPoint" />
          </mxGeometry>
        </mxCell>
        <mxCell id="DR7JTV7pjPa2kn4OJmJ5-33" value="" style="endArrow=none;html=1;rounded=0;" edge="1" parent="WIyWlLk6GJQsqaUBKTNV-1">
          <mxGeometry width="50" height="50" relative="1" as="geometry">
            <mxPoint x="270" y="1350" as="sourcePoint" />
            <mxPoint x="270" y="1270" as="targetPoint" />
          </mxGeometry>
        </mxCell>
        <mxCell id="DR7JTV7pjPa2kn4OJmJ5-34" value="불법 주차 차량 정보&lt;br&gt;(블랙리스트)" style="rounded=1;whiteSpace=wrap;html=1;absoluteArcSize=1;arcSize=14;strokeWidth=2;" vertex="1" parent="WIyWlLk6GJQsqaUBKTNV-1">
          <mxGeometry x="290" y="1279" width="120" height="38" as="geometry" />
        </mxCell>
        <mxCell id="DR7JTV7pjPa2kn4OJmJ5-35" value="불법 주차 차량 신고" style="rounded=1;whiteSpace=wrap;html=1;absoluteArcSize=1;arcSize=14;strokeWidth=2;" vertex="1" parent="WIyWlLk6GJQsqaUBKTNV-1">
          <mxGeometry x="289" y="1335" width="120" height="30" as="geometry" />
        </mxCell>
        <mxCell id="DR7JTV7pjPa2kn4OJmJ5-37" value="" style="endArrow=none;html=1;rounded=0;" edge="1" parent="WIyWlLk6GJQsqaUBKTNV-1">
          <mxGeometry width="50" height="50" relative="1" as="geometry">
            <mxPoint x="270" y="1350" as="sourcePoint" />
            <mxPoint x="290" y="1349.83" as="targetPoint" />
          </mxGeometry>
        </mxCell>
        <mxCell id="DR7JTV7pjPa2kn4OJmJ5-39" value="" style="endArrow=none;html=1;rounded=0;entryX=0;entryY=0.5;entryDx=0;entryDy=0;" edge="1" parent="WIyWlLk6GJQsqaUBKTNV-1" target="DR7JTV7pjPa2kn4OJmJ5-31">
          <mxGeometry width="50" height="50" relative="1" as="geometry">
            <mxPoint x="210" y="1250.03" as="sourcePoint" />
            <mxPoint x="230" y="1249.8600000000001" as="targetPoint" />
          </mxGeometry>
        </mxCell>
        <mxCell id="DR7JTV7pjPa2kn4OJmJ5-46" style="edgeStyle=orthogonalEdgeStyle;rounded=0;orthogonalLoop=1;jettySize=auto;html=1;exitX=0.5;exitY=1;exitDx=0;exitDy=0;entryX=0.5;entryY=0;entryDx=0;entryDy=0;" edge="1" parent="WIyWlLk6GJQsqaUBKTNV-1" source="DR7JTV7pjPa2kn4OJmJ5-40" target="DR7JTV7pjPa2kn4OJmJ5-43">
          <mxGeometry relative="1" as="geometry" />
        </mxCell>
        <mxCell id="DR7JTV7pjPa2kn4OJmJ5-40" value="&lt;font style=&quot;font-size: 14px;&quot;&gt;입차 기록&lt;/font&gt;" style="shape=partialRectangle;whiteSpace=wrap;html=1;left=0;right=0;fillColor=none;" vertex="1" parent="WIyWlLk6GJQsqaUBKTNV-1">
          <mxGeometry x="1071" y="250" width="150" height="80" as="geometry" />
        </mxCell>
        <mxCell id="DR7JTV7pjPa2kn4OJmJ5-45" style="edgeStyle=orthogonalEdgeStyle;rounded=0;orthogonalLoop=1;jettySize=auto;html=1;exitX=0.5;exitY=1;exitDx=0;exitDy=0;entryX=0.5;entryY=0;entryDx=0;entryDy=0;" edge="1" parent="WIyWlLk6GJQsqaUBKTNV-1" source="DR7JTV7pjPa2kn4OJmJ5-42" target="DR7JTV7pjPa2kn4OJmJ5-40">
          <mxGeometry relative="1" as="geometry" />
        </mxCell>
        <mxCell id="DR7JTV7pjPa2kn4OJmJ5-42" value="&lt;font style=&quot;font-size: 18px;&quot;&gt;고객&lt;/font&gt;" style="rounded=1;whiteSpace=wrap;html=1;absoluteArcSize=1;arcSize=14;strokeWidth=2;" vertex="1" parent="WIyWlLk6GJQsqaUBKTNV-1">
          <mxGeometry x="1066" y="100" width="160" height="110" as="geometry" />
        </mxCell>
        <mxCell id="DR7JTV7pjPa2kn4OJmJ5-57" value="" style="edgeStyle=orthogonalEdgeStyle;rounded=0;orthogonalLoop=1;jettySize=auto;html=1;exitX=0.5;exitY=1;exitDx=0;exitDy=0;" edge="1" parent="WIyWlLk6GJQsqaUBKTNV-1" source="DR7JTV7pjPa2kn4OJmJ5-43" target="DR7JTV7pjPa2kn4OJmJ5-56">
          <mxGeometry relative="1" as="geometry">
            <mxPoint x="1146.0588235294117" y="502" as="sourcePoint" />
          </mxGeometry>
        </mxCell>
        <mxCell id="DR7JTV7pjPa2kn4OJmJ5-43" value="&lt;font style=&quot;font-size: 14px;&quot;&gt;주차장 정보&lt;/font&gt;" style="shape=partialRectangle;whiteSpace=wrap;html=1;left=0;right=0;fillColor=none;" vertex="1" parent="WIyWlLk6GJQsqaUBKTNV-1">
          <mxGeometry x="1071" y="380" width="150" height="80" as="geometry" />
        </mxCell>
        <mxCell id="DR7JTV7pjPa2kn4OJmJ5-48" value="&lt;font style=&quot;font-size: 14px;&quot;&gt;차가 주차 자리에 주차&lt;/font&gt;" style="text;html=1;strokeColor=none;fillColor=none;align=center;verticalAlign=middle;whiteSpace=wrap;rounded=0;" vertex="1" parent="WIyWlLk6GJQsqaUBKTNV-1">
          <mxGeometry x="1079" y="475" width="150" height="30" as="geometry" />
        </mxCell>
        <mxCell id="DR7JTV7pjPa2kn4OJmJ5-68" style="edgeStyle=orthogonalEdgeStyle;rounded=0;orthogonalLoop=1;jettySize=auto;html=1;exitX=0.5;exitY=1;exitDx=0;exitDy=0;entryX=0.5;entryY=0;entryDx=0;entryDy=0;" edge="1" parent="WIyWlLk6GJQsqaUBKTNV-1" source="DR7JTV7pjPa2kn4OJmJ5-56" target="DR7JTV7pjPa2kn4OJmJ5-64">
          <mxGeometry relative="1" as="geometry" />
        </mxCell>
        <mxCell id="DR7JTV7pjPa2kn4OJmJ5-56" value="&lt;font style=&quot;font-size: 14px;&quot;&gt;주차장 현황 업데이트&lt;/font&gt;" style="ellipse;whiteSpace=wrap;html=1;fillColor=none;" vertex="1" parent="WIyWlLk6GJQsqaUBKTNV-1">
          <mxGeometry x="1066" y="630" width="160" height="80" as="geometry" />
        </mxCell>
        <mxCell id="DR7JTV7pjPa2kn4OJmJ5-60" value="&lt;font style=&quot;font-size: 14px;&quot;&gt;차가 주차 자리에서 나감&lt;/font&gt;" style="text;html=1;strokeColor=none;fillColor=none;align=center;verticalAlign=middle;whiteSpace=wrap;rounded=0;" vertex="1" parent="WIyWlLk6GJQsqaUBKTNV-1">
          <mxGeometry x="1080" y="508" width="160" height="30" as="geometry" />
        </mxCell>
        <mxCell id="DR7JTV7pjPa2kn4OJmJ5-64" value="&lt;font style=&quot;font-size: 14px;&quot;&gt;결제 기록&lt;/font&gt;" style="shape=partialRectangle;whiteSpace=wrap;html=1;left=0;right=0;fillColor=none;" vertex="1" parent="WIyWlLk6GJQsqaUBKTNV-1">
          <mxGeometry x="1071" y="840" width="150" height="80" as="geometry" />
        </mxCell>
        <mxCell id="DR7JTV7pjPa2kn4OJmJ5-69" value="&lt;span style=&quot;font-size: 14px;&quot;&gt;주차장에서 차가 나감&lt;/span&gt;" style="text;html=1;strokeColor=none;fillColor=none;align=center;verticalAlign=middle;whiteSpace=wrap;rounded=0;" vertex="1" parent="WIyWlLk6GJQsqaUBKTNV-1">
          <mxGeometry x="1140" y="752" width="160" height="30" as="geometry" />
        </mxCell>
        <mxCell id="DR7JTV7pjPa2kn4OJmJ5-70" value="" style="edgeStyle=orthogonalEdgeStyle;rounded=0;orthogonalLoop=1;jettySize=auto;html=1;" edge="1" parent="WIyWlLk6GJQsqaUBKTNV-1">
          <mxGeometry relative="1" as="geometry">
            <mxPoint x="1145" y="555" as="sourcePoint" />
            <mxPoint x="1326" y="555" as="targetPoint" />
          </mxGeometry>
        </mxCell>
        <mxCell id="DR7JTV7pjPa2kn4OJmJ5-73" style="edgeStyle=orthogonalEdgeStyle;rounded=0;orthogonalLoop=1;jettySize=auto;html=1;exitX=0.5;exitY=1;exitDx=0;exitDy=0;" edge="1" parent="WIyWlLk6GJQsqaUBKTNV-1" source="DR7JTV7pjPa2kn4OJmJ5-71" target="DR7JTV7pjPa2kn4OJmJ5-72">
          <mxGeometry relative="1" as="geometry" />
        </mxCell>
        <mxCell id="DR7JTV7pjPa2kn4OJmJ5-71" value="&lt;font style=&quot;font-size: 14px;&quot;&gt;사고 발생&lt;/font&gt;" style="ellipse;whiteSpace=wrap;html=1;fillColor=none;" vertex="1" parent="WIyWlLk6GJQsqaUBKTNV-1">
          <mxGeometry x="1326" y="515" width="160" height="80" as="geometry" />
        </mxCell>
        <mxCell id="DR7JTV7pjPa2kn4OJmJ5-75" style="edgeStyle=orthogonalEdgeStyle;rounded=0;orthogonalLoop=1;jettySize=auto;html=1;exitX=0.5;exitY=1;exitDx=0;exitDy=0;entryX=0.5;entryY=0;entryDx=0;entryDy=0;" edge="1" parent="WIyWlLk6GJQsqaUBKTNV-1" source="DR7JTV7pjPa2kn4OJmJ5-72" target="DR7JTV7pjPa2kn4OJmJ5-74">
          <mxGeometry relative="1" as="geometry" />
        </mxCell>
        <mxCell id="DR7JTV7pjPa2kn4OJmJ5-72" value="&lt;font style=&quot;font-size: 14px;&quot;&gt;사고 민원 처리&lt;/font&gt;" style="ellipse;whiteSpace=wrap;html=1;fillColor=none;" vertex="1" parent="WIyWlLk6GJQsqaUBKTNV-1">
          <mxGeometry x="1326" y="637" width="160" height="80" as="geometry" />
        </mxCell>
        <mxCell id="DR7JTV7pjPa2kn4OJmJ5-77" style="edgeStyle=orthogonalEdgeStyle;rounded=0;orthogonalLoop=1;jettySize=auto;html=1;exitX=0.5;exitY=1;exitDx=0;exitDy=0;entryX=0.5;entryY=0;entryDx=0;entryDy=0;" edge="1" parent="WIyWlLk6GJQsqaUBKTNV-1" source="DR7JTV7pjPa2kn4OJmJ5-74" target="DR7JTV7pjPa2kn4OJmJ5-76">
          <mxGeometry relative="1" as="geometry" />
        </mxCell>
        <mxCell id="DR7JTV7pjPa2kn4OJmJ5-74" value="&lt;span style=&quot;font-size: 14px;&quot;&gt;사고 기록&lt;/span&gt;" style="shape=partialRectangle;whiteSpace=wrap;html=1;left=0;right=0;fillColor=none;" vertex="1" parent="WIyWlLk6GJQsqaUBKTNV-1">
          <mxGeometry x="1331" y="767" width="150" height="80" as="geometry" />
        </mxCell>
        <mxCell id="DR7JTV7pjPa2kn4OJmJ5-76" value="&lt;font style=&quot;font-size: 14px;&quot;&gt;지도 업데이트&lt;/font&gt;" style="ellipse;whiteSpace=wrap;html=1;fillColor=none;" vertex="1" parent="WIyWlLk6GJQsqaUBKTNV-1">
          <mxGeometry x="1326" y="900" width="160" height="80" as="geometry" />
        </mxCell>
        <mxCell id="DR7JTV7pjPa2kn4OJmJ5-78" value="" style="edgeStyle=orthogonalEdgeStyle;rounded=0;orthogonalLoop=1;jettySize=auto;html=1;" edge="1" parent="WIyWlLk6GJQsqaUBKTNV-1">
          <mxGeometry relative="1" as="geometry">
            <mxPoint x="1146" y="555" as="sourcePoint" />
            <mxPoint x="966" y="555" as="targetPoint" />
          </mxGeometry>
        </mxCell>
        <mxCell id="DR7JTV7pjPa2kn4OJmJ5-81" style="edgeStyle=orthogonalEdgeStyle;rounded=0;orthogonalLoop=1;jettySize=auto;html=1;exitX=0.5;exitY=1;exitDx=0;exitDy=0;entryX=0.5;entryY=0;entryDx=0;entryDy=0;" edge="1" parent="WIyWlLk6GJQsqaUBKTNV-1" source="DR7JTV7pjPa2kn4OJmJ5-79" target="DR7JTV7pjPa2kn4OJmJ5-80">
          <mxGeometry relative="1" as="geometry" />
        </mxCell>
        <mxCell id="DR7JTV7pjPa2kn4OJmJ5-79" value="&lt;font style=&quot;font-size: 14px;&quot;&gt;불법주차 신고&lt;/font&gt;" style="ellipse;whiteSpace=wrap;html=1;fillColor=none;" vertex="1" parent="WIyWlLk6GJQsqaUBKTNV-1">
          <mxGeometry x="807" y="515" width="160" height="80" as="geometry" />
        </mxCell>
        <mxCell id="DR7JTV7pjPa2kn4OJmJ5-80" value="&lt;font style=&quot;font-size: 14px;&quot;&gt;불법 주차 차량 &lt;br&gt;정보 업데이트&lt;/font&gt;" style="ellipse;whiteSpace=wrap;html=1;fillColor=none;" vertex="1" parent="WIyWlLk6GJQsqaUBKTNV-1">
          <mxGeometry x="807" y="650" width="160" height="80" as="geometry" />
        </mxCell>
      </root>
    </mxGraphModel>
  </diagram>
</mxfile>
